<?xml version="1.0" encoding="utf-8"?>
<!-- Generator: Adobe Illustrator 18.1.1, SVG Export Plug-In . SVG Version: 6.00 Build 0)  -->
<!DOCTYPE svg PUBLIC "-//W3C//DTD SVG 1.1//EN" "http://www.w3.org/Graphics/SVG/1.1/DTD/svg11.dtd">
<svg version="1.1" id="Layer_1" xmlns="http://www.w3.org/2000/svg" xmlns:xlink="http://www.w3.org/1999/xlink" x="0px" y="0px"
	 viewBox="0 0 91.4 122.2" enable-background="new 0 0 91.4 122.2" xml:space="preserve">
<g>
	<rect x="8.3" y="13.2" fill="none" stroke="#000000" stroke-width="2" stroke-miterlimit="10" width="52" height="94.3"/>
	<path fill="none" stroke="#000000" stroke-width="2" stroke-miterlimit="10" d="M78.7,36.3c-2.9-3.2-12.6-3.4-17.5-3
		c-0.9,0.1-0.1,10.1-0.1,10.1c3.7,0,10.3,0.7,12.6,3.9c1.7,2.4,2.8,7.7,2.9,16.6l-0.2-3c0.3,8.8-0.5,16.5-2.1,19
		c-2.1,3.3-9.9,3.5-13.5,3.8c0.3,2.4,0,9.8,0,9.8c5.4,0,16.3-0.6,19.1-4.1c3.1-3.9,4.8-12.9,4.8-23.8l0,0.8
		C84.9,52.5,82.7,40.7,78.7,36.3z"/>
</g>
</svg>
