<?xml version="1.0" encoding="utf-8"?>
<!-- Generator: Adobe Illustrator 18.1.1, SVG Export Plug-In . SVG Version: 6.00 Build 0)  -->
<!DOCTYPE svg PUBLIC "-//W3C//DTD SVG 1.1//EN" "http://www.w3.org/Graphics/SVG/1.1/DTD/svg11.dtd">
<svg version="1.1" id="Layer_1" xmlns="http://www.w3.org/2000/svg" xmlns:xlink="http://www.w3.org/1999/xlink" x="0px" y="0px"
	 viewBox="0 0 89.5 134.3" enable-background="new 0 0 89.5 134.3" xml:space="preserve">
<path fill="none" stroke="#000000" stroke-width="2" stroke-miterlimit="10" d="M73.5,33.1c-1.2-2.7-7.9-16.9-7.9-16.9
	c0,0-6.7,0-12,0c0,0-3.5,0-8.1,0c-0.3,0-0.5,0-0.8,0c-4.5,0-8.1,0-8.1,0c-5.4,0-12,0-12,0c0,0-6.7,14.2-7.9,16.9
	C12,43.2,7.1,57,11.5,67.6c2.7,6.3,8.7,10.5,14.9,13.1c3,1.3,9.7,1.2,12.1,5.3c2.4,4.1,4.8,21.9,1.3,25.4c-3.5,3.5-7.1,3.2-9.9,3.1
	c-2.4-0.1-4.9,4.4-4.9,4.4h11.6h6.9h1.2h0.8h1.2h6.9h11.6c0,0-2.5-4.6-4.9-4.4c-2.8,0.1-6.5,0.4-9.9-3.1c-3.5-3.5-1-21.3,1.3-25.4
	c2.4-4.1,9-4.1,12.1-5.3c6.2-2.6,12.3-6.7,14.9-13.1C83,57,78.1,43.2,73.5,33.1z"/>
</svg>
