<?xml version="1.0" encoding="utf-8"?>
<!-- Generator: Adobe Illustrator 18.1.1, SVG Export Plug-In . SVG Version: 6.00 Build 0)  -->
<!DOCTYPE svg PUBLIC "-//W3C//DTD SVG 1.1//EN" "http://www.w3.org/Graphics/SVG/1.1/DTD/svg11.dtd">
<svg version="1.1" id="Layer_1" xmlns="http://www.w3.org/2000/svg" xmlns:xlink="http://www.w3.org/1999/xlink" x="0px" y="0px"
	 viewBox="0 0 94.7 142" enable-background="new 0 0 94.7 142" xml:space="preserve">
<path fill="none" stroke="#000000" stroke-width="2" stroke-miterlimit="10" d="M71.7,46.2c-1.2-1.8-2.5-3.5-3.8-5.2
	c-1.3-1.8-2.5-3.6-3.5-5.6c-2.9-6.2-0.3-11.8,3.1-17.2H52.8h-5.3h-1.1h-5.3H26.5c3.4,5.4,6,11,3.1,17.2c-0.9,2-2.2,3.8-3.5,5.6
	c-1.3,1.7-2.6,3.4-3.8,5.2c-4.3,6.4-6.5,14.3-4.9,21.7c1.5,6.9,6.6,12.9,13,16.2c4.7,2.4,10.1,2.7,11.8,8.3
	c2.1,6.9,1.6,15.6,1.5,22.7c0,0.4,0,0.8-0.3,1.1c-0.2,0.3-0.6,0.4-1,0.5c-2.6,0.7-11.4,0.5-12.9,2.8c-1.3,1.9-3,4-3,4h14.4h5.3h1.6
	h5.3h14.4c0,0-1.7-2.1-3-4c-1.6-2.3-10.3-2.1-12.9-2.8c-0.4-0.1-0.8-0.2-1-0.5c-0.3-0.3-0.3-0.7-0.3-1.1c-0.1-7.1-0.6-15.8,1.5-22.7
	c1.7-5.7,7-5.9,11.8-8.3c6.5-3.3,11.5-9.3,13-16.2C78.2,60.5,75.9,52.6,71.7,46.2z"/>
</svg>
